HIERARCHY
ROOT Hips
{
 OFFSET 0.000000 0.000000 0.000000
 CHANNELS 6 Xposition Yposition Zposition Yrotation Xrotation Zrotation
 JOINT Chest
 {
  OFFSET 0.000000 16.280000 -0.014500
  CHANNELS 3 Yrotation Xrotation Zrotation
  JOINT Chest2
  {
   OFFSET 0.000000 10.601900 0.029500
   CHANNELS 3 Yrotation Xrotation Zrotation
   JOINT Chest3
   {
    OFFSET 0.000000 10.554800 0.000000
    CHANNELS 3 Yrotation Xrotation Zrotation
    JOINT Chest4
    {
     OFFSET 0.000000 10.544000 0.000000
     CHANNELS 3 Yrotation Xrotation Zrotation
     JOINT Neck
     {
      OFFSET 0.000000 16.186500 0.000000
      CHANNELS 3 Yrotation Xrotation Zrotation
      JOINT Head
      {
       OFFSET 0.000000 9.876700 0.062400
       CHANNELS 3 Yrotation Xrotation Zrotation
       End Site
       {
        OFFSET 0.000000 18.635100 0.032900
       }
      }
     }
     JOINT RightCollar
     {
      OFFSET -3.550000 10.761000 0.000000
      CHANNELS 3 Yrotation Xrotation Zrotation
      JOINT RightShoulder
      {
       OFFSET -16.915100 0.000000 0.000000
       CHANNELS 3 Yrotation Xrotation Zrotation
       JOINT RightElbow
       {
        OFFSET 0.000000 -31.241900 0.000000
        CHANNELS 3 Yrotation Xrotation Zrotation
        JOINT RightWrist
        {
         OFFSET 0.000000 -25.690800 0.013700
         CHANNELS 3 Yrotation Xrotation Zrotation
         End Site
         {
          OFFSET 0.000000 -19.336200 0.000000
         }
        }
       }
      }
     }
     JOINT LeftCollar
     {
      OFFSET 3.550000 10.761000 0.000000
      CHANNELS 3 Yrotation Xrotation Zrotation
      JOINT LeftShoulder
      {
       OFFSET 16.915100 0.000000 0.000000
       CHANNELS 3 Yrotation Xrotation Zrotation
       JOINT LeftElbow
       {
        OFFSET 0.000000 -31.241900 0.000000
        CHANNELS 3 Yrotation Xrotation Zrotation
        JOINT LeftWrist
        {
         OFFSET 0.000000 -25.690800 0.013700
         CHANNELS 3 Yrotation Xrotation Zrotation
         End Site
         {
          OFFSET 0.000000 -19.336200 0.000000
         }
        }
       }
      }
     }
    }
   }
  }
 }
 JOINT RightHip
 {
  OFFSET -13.350800 0.071600 0.007200
  CHANNELS 3 Yrotation Xrotation Zrotation
  JOINT RightKnee
  {
   OFFSET 0.000000 -49.946400 0.002700
   CHANNELS 3 Yrotation Xrotation Zrotation
   JOINT RightAnkle
   {
    OFFSET 0.000000 -42.233900 0.021900
    CHANNELS 3 Yrotation Xrotation Zrotation
    JOINT RightToe
    {
     OFFSET 0.000000 -11.862800 19.724700
     CHANNELS 3 Yrotation Xrotation Zrotation
     End Site
     {
      OFFSET 0.000000 -1.715400 7.529500
     }
    }
   }
  }
 }
 JOINT LeftHip
 {
  OFFSET 13.350800 0.071600 0.007200
  CHANNELS 3 Yrotation Xrotation Zrotation
  JOINT LeftKnee
  {
   OFFSET 0.000000 -49.946400 0.002700
   CHANNELS 3 Yrotation Xrotation Zrotation
   JOINT LeftAnkle
   {
    OFFSET 0.000000 -42.233900 0.021900
    CHANNELS 3 Yrotation Xrotation Zrotation
    JOINT LeftToe
    {
     OFFSET 0.000000 -11.862800 19.724700
     CHANNELS 3 Yrotation Xrotation Zrotation
     End Site
     {
      OFFSET 0.000000 -1.715400 7.529500
     }
    }
   }
  }
 }
}
MOTION
Frames: 13
Frame Time: 0.008333
0.000000 103.775900 0.000000 0.000000 -5.767877 0.000000 0.000000 11.653817 0.000000 0.000000 -5.885947 0.000000 0.000000 -0.000000 0.000000 0.000000 -0.000000 0.000000 0.000000 12.528835 0.000000 0.000000 0.711642 0.000000 0.000000 -0.000000 0.000000 0.000000 0.000000 -90.000000 0.000000 -2.309062 0.000000 0.000000 2.309062 0.000000 0.000000 -0.000000 0.000000 0.000000 -0.000000 90.000000 0.000000 -2.309062 0.000000 0.000000 2.309062 0.000000 0.000000 8.520406 0.000000 0.000000 1.905762 0.000000 -0.000000 -4.658285 0.000000 0.000000 -0.000000 0.000000 0.000000 8.520406 0.000000 0.000000 1.905762 0.000000 -0.000000 -4.658285 0.000000 0.000000 -0.000000 0.000000
45.982217 153.446431 38.800938 -178.909937 -17.274942 -2.604841 -2.054132 9.599355 2.079523 -0.124809 0.575249 0.152128 -0.233443 1.001381 0.252932 -1.864935 8.884874 2.148926 -2.044200 20.551752 -2.145062 -1.696046 -3.896191 -1.822020 3.797892 4.232490 -3.613406 16.167691 -10.789532 -5.983791 40.488112 -37.458395 -28.634863 -8.040968 -10.494011 -28.538319 -1.563476 7.471507 0.836267 -8.113940 -10.399813 -0.409160 -52.000204 -40.166420 39.143718 -4.583922 -5.347654 28.051058 -3.003809 -52.604579 0.936302 -167.764109 71.126856 -157.685669 -0.829940 -36.897558 -3.424764 0.080778 -0.177625 0.050931 -10.200943 -51.257839 5.765847 158.548099 68.751511 154.456174 0.610169 -36.725968 -3.099959 0.075423 0.191407 0.047577
49.161246 146.042869 38.109833 -178.901725 -17.289689 -2.666087 -2.033535 9.607403 2.150156 -0.132073 0.578967 0.148591 -0.235046 1.002915 0.252452 -1.861625 8.891419 2.145843 -2.056505 20.555364 -2.145043 -1.701439 -3.891498 -1.820424 3.794357 4.235552 -3.610236 16.163076 -10.790950 -5.981561 40.488064 -37.456703 -28.643604 -8.039959 -10.497063 -28.549475 -1.574836 7.469191 0.837145 -8.117433 -10.401153 -0.406715 -52.004963 -40.164123 39.146445 -4.582906 -5.346287 28.039438 -3.082362 -52.600327 1.027299 -167.797117 71.104604 -157.702502 -0.786756 -36.958434 -3.449961 0.055587 -0.127196 0.033416 -10.275494 -51.223247 5.851182 158.548077 68.769556 154.455946 0.636210 -36.653273 -3.106831 0.055409 0.135261 0.033339
51.784052 139.946542 37.542005 -178.898392 -17.305076 -2.730347 -2.021277 9.622464 2.216131 -0.132250 0.579303 0.148507 -0.230873 1.003889 0.254660 -1.866496 8.894835 2.140574 -2.059944 20.558185 -2.144372 -1.705480 -3.881267 -1.817379 3.801165 4.238982 -3.605599 16.156848 -10.789818 -5.977272 40.491723 -37.454866 -28.659364 -8.038120 -10.499862 -28.559035 -1.575352 7.467799 0.839883 -8.126304 -10.398446 -0.398985 -52.006571 -40.167459 39.150104 -4.576435 -5.344264 28.037942 -3.161533 -52.596987 1.124560 -167.821195 71.085728 -157.705880 -0.733123 -36.997979 -3.497912 0.024076 -0.061222 0.014475 -10.343359 -51.195081 5.934535 158.532378 68.776297 154.446092 0.671415 -36.573876 -3.114684 0.021475 0.071798 0.012920
53.671030 135.544118 37.133754 -178.881016 -17.320813 -2.752756 -2.030482 9.635778 2.234928 -0.132482 0.579699 0.148386 -0.218001 0.998712 0.260679 -1.882046 8.904122 2.132673 -2.061913 20.558414 -2.144037 -1.707959 -3.871158 -1.819016 3.810746 4.242785 -3.601311 16.155122 -10.782011 -5.974098 40.494486 -37.461956 -28.677730 -8.035624 -10.497525 -28.576690 -1.570833 7.464895 0.839776 -8.122373 -10.397093 -0.392302 -52.026991 -40.156972 39.148359 -4.560725 -5.347735 28.043809 -3.177323 -52.596013 1.123452 -167.890056 71.069846 -157.747624 -0.707805 -37.013215 -3.525808 0.010972 -0.039270 0.006598 -10.374426 -51.173120 5.954099 158.583889 68.796661 154.494754 0.690642 -36.527672 -3.116310 0.016729 0.044397 0.010064
54.866854 132.764498 36.880103 -178.864854 -17.332305 -2.778666 -2.025545 9.639079 2.267178 -0.138750 0.583590 0.144968 -0.217437 1.000395 0.262068 -1.890593 8.909146 2.126234 -2.063247 20.564154 -2.145529 -1.712319 -3.866822 -1.819037 3.821357 4.244996 -3.598853 16.152084 -10.770828 -5.969661 40.506242 -37.466011 -28.703074 -8.040739 -10.496224 -28.598087 -1.565874 7.464482 0.839318 -8.122668 -10.395765 -0.385661 -52.048674 -40.152333 39.155564 -4.538924 -5.349670 28.044281 -3.209558 -52.591268 1.145073 -167.925442 71.066812 -157.757877 -0.692663 -37.024732 -3.558610 0.007394 -0.014056 0.004446 -10.411202 -51.157831 5.981543 158.616465 68.806957 154.527938 0.704910 -36.487881 -3.120526 0.007044 0.021925 0.004237
55.522421 131.238030 36.741889 -178.838607 -17.357572 -2.785441 -2.043727 9.662361 2.269356 -0.133454 0.581841 0.148161 -0.214771 0.999778 0.263710 -1.894064 8.926865 2.125302 -2.072700 20.559104 -2.151323 -1.712824 -3.863683 -1.821698 3.817249 4.234027 -3.604555 16.166808 -10.762510 -5.972950 40.509615 -37.475407 -28.716308 -8.044459 -10.487411 -28.625218 -1.569734 7.453780 0.834509 -8.125830 -10.397103 -0.381070 -52.064380 -40.145659 39.156207 -4.514830 -5.349433 28.050783 -3.218165 -52.571895 1.126336 -167.927247 71.065781 -157.736796 -0.687695 -37.002140 -3.586000 0.009773 -0.002794 0.005877 -10.421687 -51.137888 5.963719 158.643779 68.811018 154.559464 0.709890 -36.466135 -3.125447 0.005152 0.017083 0.003099
55.834681 130.514095 36.679163 -178.802430 -17.390926 -2.789300 -2.041340 9.671864 2.285284 -0.156796 0.597853 0.138491 -0.210440 0.999860 0.264448 -1.904465 8.941389 2.119153 -2.074976 20.560708 -2.154381 -1.712854 -3.862459 -1.827629 3.815727 4.228810 -3.606624 16.177800 -10.748289 -5.976024 40.524940 -37.493376 -28.741607 -8.054586 -10.471840 -28.639473 -1.574815 7.448211 0.832308 -8.128326 -10.399880 -0.374827 -52.046403 -40.149459 39.129909 -4.522430 -5.354465 28.055874 -3.214206 -52.552643 1.081503 -167.937301 71.057538 -157.714431 -0.684004 -36.941486 -3.633234 0.006146 0.008766 0.003697 -10.429510 -51.117926 5.930391 158.676053 68.806897 154.597369 0.720657 -36.448294 -3.128496 0.005084 0.008459 0.003058
55.962971 130.221589 36.658939 -178.769993 -17.429520 -2.789488 -2.061063 9.703883 2.281167 -0.146336 0.592999 0.142473 -0.222291 1.007633 0.260359 -1.901744 8.954611 2.116853 -2.079227 20.559801 -2.159088 -1.711204 -3.858850 -1.832544 3.835354 4.239389 -3.599957 16.194323 -10.729273 -6.021259 40.501330 -37.540710 -28.757730 -8.064658 -10.456180 -28.648578 -1.576083 7.445713 0.826914 -8.133625 -10.409584 -0.356444 -52.022417 -40.165448 39.096508 -4.537282 -5.352665 28.048304 -3.195799 -52.528761 1.023165 -167.951487 71.052657 -157.692184 -0.673776 -36.876973 -3.678524 0.006743 0.014693 0.004056 -10.434133 -51.092119 5.897545 158.728379 68.804686 154.650279 0.733159 -36.434839 -3.130178 0.006352 0.002805 0.003820
56.005573 130.123838 36.661550 -178.750817 -17.468055 -2.774014 -2.070254 9.734592 2.265638 -0.136035 0.588056 0.148050 -0.233880 1.015862 0.254759 -1.899923 8.966448 2.113026 -2.065787 20.573930 -2.170179 -1.716912 -3.863770 -1.838856 3.839355 4.247330 -3.595827 16.201208 -10.730316 -6.047238 40.503091 -37.569226 -28.765631 -8.074596 -10.448266 -28.665602 -1.566533 7.465314 0.809337 -8.150055 -10.437551 -0.326308 -51.993719 -40.180172 39.068435 -4.501850 -5.371923 27.993887 -3.148077 -52.508172 0.942667 -168.016555 71.043585 -157.734162 -0.673075 -36.824008 -3.702190 -0.000002 0.021296 -0.000001 -10.415336 -51.064381 5.852101 158.788924 68.808679 154.709445 0.727203 -36.410355 -3.137007 0.003396 0.011350 0.002043
56.019815 130.102575 36.669169 -178.720715 -17.532723 -2.770600 -2.051900 9.749580 2.280837 -0.160896 0.618042 0.136085 -0.235026 1.021189 0.254546 -1.919046 8.981896 2.103013 -2.055311 20.586326 -2.177405 -1.729204 -3.875806 -1.829361 3.848103 4.259301 -3.592471 16.196384 -10.738693 -6.059850 40.520382 -37.591502 -28.774278 -8.101568 -10.432190 -28.676092 -1.560929 7.485141 0.797676 -8.154236 -10.462174 -0.305279 -51.967848 -40.193455 39.046769 -4.483259 -5.394193 27.954204 -3.115742 -52.462092 0.873781 -168.071507 71.034919 -157.762422 -0.671360 -36.769310 -3.727157 -0.005161 0.033212 -0.003105 -10.411333 -51.007725 5.811131 158.825282 68.810679 154.742706 0.730400 -36.406440 -3.135933 0.009191 0.013994 0.005528
56.013965 130.106559 36.679119 -178.677091 -17.619945 -2.732889 -2.080783 9.813011 2.237492 -0.156640 0.621157 0.139451 -0.213530 1.010874 0.266201 -1.952932 9.033320 2.078298 -2.049625 20.581862 -2.182413 -1.732199 -3.883912 -1.829929 3.839461 4.241989 -3.589807 16.234041 -10.720215 -6.100355 40.465696 -37.717489 -28.720911 -8.161697 -10.386470 -28.652196 -1.569651 7.475470 0.794989 -8.159285 -10.478841 -0.293600 -51.953600 -40.197226 39.035387 -4.425298 -5.415207 27.906016 -2.982857 -52.410234 0.684369 -168.150402 70.995883 -157.792817 -0.667859 -36.677592 -3.732977 -0.005757 0.004428 -0.003462 -10.373291 -50.936126 5.705151 158.833641 68.804060 154.745847 0.711230 -36.371542 -3.136376 0.009012 0.003842 0.005420
56.012185 130.119843 36.689667 -178.627709 -17.734066 -2.717390 -2.122385 9.919346 2.206025 -0.109934 0.571005 0.162735 -0.255049 1.060465 0.246983 -1.948747 9.064880 2.072426 -2.050033 20.573461 -2.187028 -1.695212 -3.881639 -1.871379 3.851900 4.235870 -3.579509 16.329529 -10.675619 -6.221507 40.266411 -37.889743 -28.614644 -8.204057 -10.330916 -28.598131 -1.581717 7.465541 0.789953 -8.171069 -10.497013 -0.281716 -51.817280 -40.247571 38.975418 -4.421566 -5.459226 27.813518 -2.932013 -52.310012 0.579502 -168.199896 70.982763 -157.819045 -0.682372 -36.602183 -3.741101 -0.001324 0.002354 -0.000796 -10.365110 -50.833160 5.630781 158.882932 68.803321 154.785235 0.706211 -36.343148 -3.135931 0.008807 0.001024 0.005296
